<?xml version="1.0" encoding="UTF-8"?>
<svg width="268px" height="75px" viewBox="0 0 268 75" version="1.1" xmlns="http://www.w3.org/2000/svg" xmlns:xlink="http://www.w3.org/1999/xlink">
    <!-- Generator: Sketch 52.5 (67469) - http://www.bohemiancoding.com/sketch -->
    <title>Group 19</title>
    <desc>Created with Sketch.</desc>
    <defs>
        <polygon id="path-1" points="0 0.161261792 21.5307867 0.161261792 21.5307867 72.7096951 0 72.7096951"></polygon>
        <polygon id="path-3" points="0.203461927 0.0101078167 22.3231553 0.0101078167 22.3231553 74.5449798 0.203461927 74.5449798"></polygon>
        <polygon id="path-5" points="0 74.9561995 267.799023 74.9561995 267.799023 0.42115903 0 0.42115903"></polygon>
    </defs>
    <g id="Page-1" stroke="none" stroke-width="1" fill="none" fill-rule="evenodd">
        <g id="Group-19">
            <g id="Group-3" transform="translate(0.000000, 1.253369)">
                <mask id="mask-2" fill="white">
                    <use xlink:href="#path-1"></use>
                </mask>
                <g id="Clip-2"></g>
                <path d="M21.5307867,71.2663831 L21.5307867,72.7096951 C17.6038999,70.7327746 14.3272827,68.4189269 11.7013561,65.7668885 C7.95725236,61.9958305 5.07062837,57.5500758 3.04274764,52.4275185 C1.0140246,47.3045401 -0.000126347709,41.9869862 -0.000126347709,36.4748568 C-0.000126347709,28.413873 1.98942891,21.0612786 5.9676971,14.4170738 C9.94638646,7.77329009 15.1342234,3.02219508 21.5307867,0.161261792 L21.5307867,1.79914926 C18.3320839,3.56801718 15.705315,5.98589117 13.6517436,9.0540347 C11.5969087,12.1221782 10.0630475,16.0103184 9.04889656,20.7163494 C8.03516678,25.4232227 7.52767015,30.3377274 7.52767015,35.4602847 C7.52767015,41.025059 7.95725236,46.0827577 8.81557446,50.6329599 C9.49069239,54.221656 10.3098467,57.1006991 11.2726162,59.2726162 C12.2341223,61.4432699 13.5279228,63.5301129 15.1531755,65.5331452 C16.7780071,67.5349141 18.9040179,69.4461338 21.5307867,71.2663831" id="Fill-1" fill="#404042" mask="url(#mask-2)"></path>
            </g>
            <path d="M47.0236691,13.1527965 C50.0349562,13.1527965 49.6327493,14.6925539 50.9332884,18.6463949 C52.9860175,24.8896563 52.6044474,23.2420822 54.0494441,28.6299697 L58.6981974,21.6568396 C59.9292453,19.9675708 61.4256233,18.3557951 63.1873315,16.8248821 C64.9477763,15.2922844 66.496378,14.2448619 67.8360849,13.6809299 C68.6809299,13.3292621 69.6129549,13.1527965 70.635529,13.1527965 C72.1483322,13.1527965 73.3557951,13.5583726 74.253285,14.3686826 C75.1507749,15.1785714 75.6009939,16.1632412 75.6009939,17.3264825 C75.6009939,18.6645047 75.3356637,19.5801044 74.8079515,20.0732817 C73.8211759,20.9539252 72.6958389,21.3927729 71.427308,21.3927729 C70.6881739,21.3927729 69.8963949,21.2344171 69.0502864,20.9177055 C67.3955526,20.3554582 66.2853774,20.0732817 65.7227089,20.0732817 C64.878285,20.0732817 63.8738208,20.5664589 62.7122642,21.5511287 C60.5277123,23.3823282 57.9228437,26.922591 54.8938679,32.1685478 L59.2263309,50.3386119 C59.8947102,53.1212096 60.458221,54.7860512 60.9155997,55.3306098 C61.3725573,55.8781166 61.8311995,56.1506065 62.2898416,56.1506065 C63.0289757,56.1506065 63.8919306,55.7446092 64.878285,54.9347204 C66.8135108,53.315785 68.4695081,51.2028302 69.84375,48.596277 L71.6913747,49.5468329 C69.4727089,53.702409 66.6547338,57.1538073 63.2399764,59.9001853 C61.303066,61.4492082 59.6655997,62.224562 58.3271563,62.224562 C56.3557109,62.224562 54.7885782,61.1143868 53.6274427,58.8969845 C52.886624,57.5231637 51.3552898,51.6071429 49.0313342,41.1485007 C43.5377358,50.6915431 39.1357817,56.8366745 35.8254717,59.5834737 C33.6775606,61.3439185 31.599562,62.224562 29.5927392,62.224562 C28.1848046,62.224562 26.8990061,61.7132749 25.7366071,60.6919643 C24.8917621,59.9182951 24.4689185,58.8788747 24.4689185,57.5758086 C24.4689185,56.414252 24.8572271,55.4460074 25.6308962,54.6706536 C26.40625,53.8965633 27.3568059,53.509097 28.4834063,53.509097 C29.6100067,53.509097 30.807783,54.0717655 32.0754717,55.1987871 C32.9906503,56.0099394 33.6948282,56.414252 34.1880054,56.414252 C34.6104279,56.414252 35.15625,56.1324966 35.8254717,55.5681435 C37.4802055,54.2301213 39.7342487,51.3434973 42.5867588,46.9057446 C45.4388477,42.4692554 47.3054245,39.2654987 48.1864892,37.2923686 C46.0023585,28.7356806 44.822692,24.210748 44.6470687,23.7175708 C43.8363376,21.4289926 42.7796496,19.809215 41.4774259,18.8573956 C40.1739387,17.9072608 38.2555593,17.4317722 35.7197608,17.4317722 C34.909872,17.4317722 33.9765836,17.4667284 32.9203167,17.5374832 L32.9203167,15.635529 L47.0236691,13.1527965 Z" id="Fill-4" fill="#EC1D24"></path>
            <g id="Group-8" transform="translate(78.335580, 0.411051)">
                <mask id="mask-4" fill="white">
                    <use xlink:href="#path-3"></use>
                </mask>
                <g id="Clip-7"></g>
                <path d="M0.203461927,1.69289084 L0.203461927,0.0099393531 C4.26385613,2.01381402 7.64281503,4.37777965 10.3411809,7.10267857 C14.1623568,11.0034535 17.1142604,15.5780829 19.1985765,20.8278302 C21.2820502,26.0771563 22.3231553,31.5471698 22.3231553,37.2374495 C22.3231553,45.5195418 20.2860091,53.073029 16.2121378,59.8987534 C12.1382665,66.7240566 6.80176044,71.6065532 0.203461927,74.5449798 L0.203461927,73.0625 C3.49018699,71.2190869 6.19487028,68.7279313 8.31751179,65.589033 C10.4426803,62.4497136 12.0182362,58.4558625 13.0471277,53.6074798 C14.0747557,48.7582547 14.5889909,43.7030829 14.5889909,38.4398585 C14.5889909,32.7491577 14.1484586,27.5537399 13.2673939,22.8510782 C12.5990145,19.1646732 11.7642773,16.2131907 10.7627611,13.9953673 C9.76124495,11.7783861 8.43122473,9.6414252 6.77522743,7.58364218 C5.11880896,5.52712264 2.92836085,3.56283693 0.203461927,1.69289084" id="Fill-6" fill="#404042" mask="url(#mask-4)"></path>
            </g>
            <mask id="mask-6" fill="white">
                <use xlink:href="#path-5"></use>
            </mask>
            <g id="Clip-10"></g>
            <polygon id="Fill-9" fill="#404042" mask="url(#mask-6)" points="107.280576 45.3794643 111.484164 45.3794643 111.484164 25.3263982 107.280576 25.3263982"></polygon>
            <polygon id="Fill-11" fill="#404042" mask="url(#mask-6)" points="115.033861 25.3265246 118.676887 25.3265246 128.174444 38.6848467 128.174444 25.3265246 132.378454 25.3265246 132.378454 45.3795906 128.735007 45.3795906 119.237449 32.0212685 119.237449 45.3795906 115.033861 45.3795906"></polygon>
            <polygon id="Fill-12" fill="#404042" mask="url(#mask-6)" points="135.927729 25.3265246 139.570755 25.3265246 149.068312 38.6848467 149.068312 25.3265246 153.272321 25.3265246 153.272321 45.3795906 149.628875 45.3795906 140.131317 32.0212685 140.131317 45.3795906 135.927729 45.3795906"></polygon>
            <path d="M170.086422,40.4754885 C170.978437,39.385529 171.425286,37.7097372 171.425286,35.4468497 C171.425286,32.9763309 170.989387,31.2171496 170.117166,30.1684636 C169.245788,29.1206199 167.854279,28.596277 165.944744,28.596277 C164.034788,28.596277 162.644121,29.1206199 161.772321,30.1684636 C160.900101,31.2171496 160.464201,32.9763309 160.464201,35.4468497 C160.464201,37.7097372 160.91063,39.385529 161.803487,40.4754885 C162.695923,41.5654481 164.076482,42.1100067 165.944744,42.1100067 C167.813427,42.1100067 169.193565,41.5654481 170.086422,40.4754885 M156.198282,35.4468497 C156.198282,31.8341476 157.003117,29.1930593 158.611944,27.5219003 C160.22035,25.8507412 162.664757,25.0151617 165.944744,25.0151617 C169.22473,25.0151617 171.669137,25.8507412 173.277965,27.5219003 C174.886371,29.1930593 175.691206,31.8341476 175.691206,35.4468497 C175.691206,42.2763646 172.442385,45.691122 165.944744,45.691122 C159.447102,45.691122 156.198282,42.2763646 156.198282,35.4468497" id="Fill-13" fill="#404042" mask="url(#mask-6)"></path>
            <polygon id="Fill-14" fill="#404042" mask="url(#mask-6)" points="175.97153 25.3265246 180.362113 25.3265246 185.904987 40.6777712 191.478605 25.3265246 195.869188 25.3265246 188.240313 45.3795906 183.63157 45.3795906"></polygon>
            <path d="M207.91998,37.3147321 L204.837517,29.2499579 L201.785799,37.3147321 L207.91998,37.3147321 Z M202.5641,25.3264404 L207.172844,25.3264404 L214.801718,45.3795064 L210.44188,45.3795064 L208.542874,40.5530239 L201.162904,40.5530239 L199.294643,45.3795064 L194.90406,45.3795064 L202.5641,25.3264404 Z" id="Fill-15" fill="#404042" mask="url(#mask-6)"></path>
            <polygon id="Fill-16" fill="#404042" mask="url(#mask-6)" points="218.756191 28.5649848 212.590423 28.5649848 212.590423 25.3266931 229.093961 25.3266931 229.093961 28.5649848 222.959358 28.5649848 222.959358 45.3797591 218.756191 45.3797591"></polygon>
            <path d="M242.95064,40.4754885 C243.842655,39.385529 244.289505,37.7097372 244.289505,35.4468497 C244.289505,32.9763309 243.853605,31.2171496 242.981385,30.1684636 C242.110007,29.1206199 240.718497,28.596277 238.808962,28.596277 C236.899006,28.596277 235.508339,29.1206199 234.63654,30.1684636 C233.764319,31.2171496 233.32842,32.9763309 233.32842,35.4468497 C233.32842,37.7097372 233.774848,39.385529 234.667706,40.4754885 C235.560142,41.5654481 236.940701,42.1100067 238.808962,42.1100067 C240.677645,42.1100067 242.057783,41.5654481 242.95064,40.4754885 M229.0625,35.4468497 C229.0625,31.8341476 229.867335,29.1930593 231.476162,27.5219003 C233.084569,25.8507412 235.528976,25.0151617 238.808962,25.0151617 C242.088949,25.0151617 244.533356,25.8507412 246.142183,27.5219003 C247.75059,29.1930593 248.555425,31.8341476 248.555425,35.4468497 C248.555425,42.2763646 245.306604,45.691122 238.808962,45.691122 C232.311321,45.691122 229.0625,42.2763646 229.0625,35.4468497" id="Fill-17" fill="#404042" mask="url(#mask-6)"></path>
            <path d="M260.014572,35.2595182 C261.155913,35.2595182 262.027712,35.0055593 262.62997,34.496378 C263.232227,33.9880391 263.532935,33.1735175 263.532935,32.0523922 C263.532935,30.931688 263.263393,30.1112702 262.723888,29.5924023 C262.183541,29.0735344 261.363544,28.8136792 260.263898,28.8136792 L255.686321,28.8136792 L255.686321,35.2595182 L260.014572,35.2595182 Z M251.482311,25.3264825 L261.104532,25.3264825 C263.346361,25.3264825 265.022574,25.9182109 266.13317,27.1012466 C267.243346,28.2842823 267.798854,29.9348046 267.798854,32.0523922 C267.798854,33.4022069 267.450977,34.5646058 266.756065,35.5400101 C266.059889,36.5158356 265.079431,37.221277 263.813427,37.6571765 C264.125084,37.9275606 264.378622,38.2131065 264.576146,38.513814 C264.773248,38.8145216 264.985933,39.2348383 265.214623,39.7747642 L267.643447,45.3795485 L263.28403,45.3795485 L260.917537,39.9925034 C260.709485,39.5153302 260.476584,39.1885108 260.216728,39.011624 C259.956873,38.8355795 259.547507,38.7471361 258.986944,38.7471361 L255.686321,38.7471361 L255.686321,45.3795485 L251.482311,45.3795485 L251.482311,25.3264825 Z" id="Fill-18" fill="#404042" mask="url(#mask-6)"></path>
        </g>
    </g>
</svg>